<svg xmlns="http://www.w3.org/2000/svg" version="1.1" xmlns:xlink="http://www.w3.org/1999/xlink" xmlns:svgjs="http://svgjs.com/svgjs" width="1440" height="1024" preserveAspectRatio="none" viewBox="0 0 1440 1024"><g mask="url(&quot;#SvgjsMask1084&quot;)" fill="none"><rect width="1440" height="1024" x="0" y="0" fill="rgba(0, 181, 255, 1)"></rect><path d="M0,621.389C116.497,630.837,230.196,573.214,321.438,500.168C407.577,431.207,442.321,323.077,494.241,225.712C549.941,121.26,637.961,26.785,636.994,-91.586C635.983,-215.284,566.627,-327.403,488.935,-423.664C409.284,-522.352,308.983,-602.953,189.641,-645.859C65.676,-690.427,-76.713,-724.38,-196.788,-670.198C-314.154,-617.239,-352.896,-474.979,-425.189,-368.428C-488.109,-275.692,-567.943,-194.437,-593.599,-85.347C-620.689,29.842,-631.803,158.946,-573.421,261.873C-516.206,362.743,-387.845,389.013,-289.592,450.614C-192.682,511.373,-114.008,612.143,0,621.389" fill="#0076a6"></path><path d="M1440 1721.345C1567.853 1707.9769999999999 1655.377 1589.942 1743.655 1496.496 1815.03 1420.943 1859.35 1329.739 1900.225 1234.1779999999999 1940.127 1140.89 1988.634 1047.513 1978.8980000000001 946.518 1968.946 843.2860000000001 1899.826 760.837 1846.045 672.1600000000001 1781.069 565.025 1750.883 409.938 1631.124 373.091 1511.595 336.31500000000005 1406.789 467.092 1286.104 499.879 1161.817 533.644 992.094 465.77700000000004 913.732 567.986 834.054 671.9110000000001 931.498 821.318 939.447 952.031 945.5160000000001 1051.839 930.679 1148.517 954.933 1245.523 983.6089999999999 1360.213 1008.203 1481.781 1092.598 1564.568 1185.1680000000001 1655.374 1311.03 1734.83 1440 1721.345" fill="#59cfff"></path></g><defs><mask id="SvgjsMask1084"><rect width="1440" height="1024" fill="#ffffff"></rect></mask></defs></svg>