<svg height="512" viewBox="0 0 512 512" width="512" xmlns="http://www.w3.org/2000/svg"><g><g fill="#57a4ff"><path d="m480 385v-9l-448 8v1h-16v32h480v-32z"/><path d="m193.54 345-1.82 10.63 20.22-10.63 44.06-23.16 44.06 23.16 20.22 10.63-1.82-10.63-10.46-60.94 52-50.69-71.86-10.44-32.14-65.12-32.14 65.12-71.86 10.44 52 50.69z"/><path d="m64 297h96v32h-96z"/><path d="m352 297h96v32h-96z"/></g><g fill="#004fac"><path d="m496 376h-8v-216a8 8 0 0 0 -13.66-5.66l-73.75 73.75-138.4-169.16a8 8 0 0 0 -12.38 0l-138.4 169.16-73.75-73.75a8 8 0 0 0 -13.66 5.66v216h-8a8 8 0 0 0 -8 8v32a8 8 0 0 0 8 8h480a8 8 0 0 0 8-8v-32a8 8 0 0 0 -8-8zm-456-196.69 66.34 66.35a8.009 8.009 0 0 0 11.85-.59l137.81-168.44 137.81 168.44a8.009 8.009 0 0 0 11.85.59l66.34-66.35v196.69h-432zm448 228.69h-464v-16h464z"/><path d="m316.6 285.853 48.984-47.753a8 8 0 0 0 -4.434-13.646l-67.7-9.837-30.276-61.347a8 8 0 0 0 -14.348 0l-30.276 61.348-67.7 9.837a8 8 0 0 0 -4.434 13.646l48.984 47.752-11.56 67.426a8 8 0 0 0 11.607 8.433l60.553-31.835 60.553 31.835a8 8 0 0 0 11.607-8.433zm-16.481-1.441 9.535 55.6-49.927-26.249a8 8 0 0 0 -7.446 0l-49.931 26.244 9.535-55.6a8 8 0 0 0 -2.3-7.081l-40.393-39.373 55.822-8.111a8 8 0 0 0 6.023-4.377l24.963-50.577 24.964 50.582a8 8 0 0 0 6.023 4.377l55.822 8.111-40.393 39.373a8 8 0 0 0 -2.301 7.081z"/><path d="m160 288h-96a8 8 0 0 0 -8 8v32a8 8 0 0 0 8 8h96a8 8 0 0 0 8-8v-32a8 8 0 0 0 -8-8zm-8 32h-80v-16h80z"/><path d="m448 288h-96a8 8 0 0 0 -8 8v32a8 8 0 0 0 8 8h96a8 8 0 0 0 8-8v-32a8 8 0 0 0 -8-8zm-8 32h-80v-16h80z"/></g></g></svg>