<svg width="885.55805" height="557.51874" xmlns="http://www.w3.org/2000/svg">
 <title>heavy_box</title>

 <g>
  <title>background</title>
  <rect x="-1" y="-1" width="887.55805" height="559.51874" id="canvas_background" fill="none"/>
 </g>
 <g>
  <title>Layer 1</title>
  <path opacity="0.77" d="m681.59126,421.11103c36.42578,-91.06739 25.40683,-192.75416 -21.57259,-270.85166l-491.77326,68.09166l471.2759,-98.21687c-198.62291,-247.68466 -585.21339,-83.39849 -547.948,229.321l590.01795,71.65587z" fill="#f7b276" id="svg_1"/>
  <rect stroke="#ffaa56" x="76.75322" y="320.44454" width="626.52594" height="195.09542" fill="#ff7f00" id="svg_2"/>
  <path d="m251.48504,296.65242c5.62128,4.36531 7.67682,5.77455 8.8739,5.59569c57.99957,16.88979 7.15438,36.68334 -21.02622,3.08454l12.15232,-8.68023z" fill="#ffb8b8" id="svg_3"/>
  <polygon points="60.099 475.093 60.099 514.747 88.649 513.161 80.719 471.921 60.099 475.093" fill="#ffb8b8" id="svg_4"/>
  <polygon points="218.713 475.093 218.713 514.747 190.162 513.161 198.093 471.921 218.713 475.093" fill="#ffb8b8" id="svg_5"/>
  <path d="m131.47512,270.48108l42.82582,-1.58614c98.7937,103.57113 61.43194,79.94854 58.68724,222.05982l-52.34267,-15.86139l11.103,-98.34078c0.00564,-0.00376 2.9288,-1.95254 0.499,-1.99746c-15.19648,5.22229 -26.2843,-59.43676 -59.18629,-51.93136c-37.44073,-1.791 -43.536,53.75037 -58.68724,53.92882l11.10306,98.34078l-52.3427,15.86139c-5.8605,-156.16587 -34.583,-120.8878 58.68724,-222.05982l39.65354,1.58614z" fill="#4c4c4c" id="svg_6"/>
  <path stroke="#ff5656" d="m68.02945,502.05775s-6.34456,-12.68913 -14.27527,-6.34456s-26.96441,25.37826 -26.96441,25.37826s-45.99811,20.61985 -17.44756,33.309s52.34268,-17.44756 52.34268,-17.44756c27.194,-5.67065 42.87962,-9.3011 28.45819,-38.964c-8.18761,3.54302 -19.77432,7.64487 -22.11363,4.06886z" fill="#999999" id="svg_7"/>
  <path d="m210.7822,502.05775s6.34456,-12.68913 14.27527,-6.34456s26.96441,25.37826 26.96441,25.37826s45.99811,20.61985 17.44756,33.309s-52.34268,-17.44756 -52.34268,-17.44756c-27.194,-5.67065 -42.87962,-9.3011 -28.45819,-38.964c8.18761,3.54302 19.77432,7.64487 22.11363,4.06886z" fill="#999999" id="svg_8"/>
  <path d="m174.30094,91.24708c-2.35907,39.4855 -56.24811,36.00919 -57.10087,-0.00032c2.35884,-39.48519 56.24788,-36.00888 57.10087,0.00032z" fill="#ffb8b8" id="svg_9"/>
  <path d="m133.06126,111.86692c13.87587,41.93775 -18.88432,19.10541 26.96441,52.34267l17.44755,-34.89511s-12.68913,-4.75843 -11.103,-22.206l-33.30896,4.75844z" fill="#ffb8b8" id="svg_10"/>
  <path d="m218.71291,135.65904l-47.28234,-10.79227c1.32987,28.5097 -29.09516,22.7717 -34.404,8.43062l-45.205,26.15378c18.97388,70.667 14.16522,73.58277 -11.103,118.96062c-9.64336,8.806 4.77846,13.85306 17.33355,9.03441c9.576,-5.91024 14.43914,-11.16237 24.7,-9.82589c48.48518,10.0956 88.84834,12.47853 95.23609,8.53366c2.28576,-3.27133 -0.06617,-149.92705 0.7247,-150.49493z" fill="#999999" id="svg_11"/>
  <path d="m206.02377,138.83137c1.58614,0 9.7566,-3.84164 9.7566,-3.84164c23.771,-0.40071 39.72292,159.49664 40.99993,164.04194l-15.86141,11.103l-25.37827,-65.03181l-9.51685,-106.27149z" fill="#b2b2b2" id="svg_12"/>
  <path d="m94.99386,324.40989c0.811,5.98616 2.1911,73.21058 26.27252,41.80855c3.15944,-22.91 -7.58221,-29.74918 -10.4111,-44.98083l-15.86142,3.17228z" fill="#ffb8b8" id="svg_13"/>
  <path d="m101.33843,159.45117l-4.85992,-2.69431c-13.02929,-0.42812 -8.923,34.06114 -14.43543,59.31894c-4.50341,29.42466 -3.22115,61.86983 2.06236,105.24733c0.46205,15.91777 28.9725,5.88989 33.0944,4.67291c0,0 -9.51685,-65.03181 -4.75842,-76.1348s-11.10299,-90.41007 -11.10299,-90.41007z" fill="#b2b2b2" id="svg_14"/>
  <path d="m173.05304,63.56973a34.02906,34.02906 0 0 0 -19.357,-14.798l-5.91821,4.73455l2.3009,-5.52232a31.326,31.326 0 0 0 -5.84937,-0.33807l-5.32488,6.84631l2.20389,-6.6118c-22.84908,2.4534 -36.36771,28.68323 -24.50556,47.04084c1.82984,-5.62323 4.05069,-10.89971 5.88053,-16.523a16.64409,16.64409 0 0 0 4.33558,0.02112l2.22628,-5.19453l0.62186,4.97483c6.90017,-0.60122 17.13483,-1.921 23.67647,-3.13031l-0.63606,-3.81638l3.80566,3.17141c2.00423,-0.46143 3.19416,-0.87977 3.09583,-1.19955c4.86513,7.84319 9.68573,12.8528 14.55074,20.69594c1.84683,-11.06305 5.10706,-20.259 -1.10666,-30.35104z" fill="#2f2e41" id="svg_15"/>
  <rect x="527.41215" y="343.97895" width="138.36733" height="65.63579" fill="#ffaa56" id="svg_16"/>
  <rect x="553.57776" y="357.72699" width="86.0361" height="7.8701" fill="#e6e6e6" id="svg_17"/>
  <rect x="553.57776" y="372.8618" width="86.0361" height="7.8701" fill="#e6e6e6" id="svg_18"/>
  <rect x="553.57776" y="387.9966" width="86.0361" height="7.8701" fill="#e6e6e6" id="svg_19"/>
  <circle cx="711.88818" cy="483.13309" r="37.06013" fill="#3f3d56" id="svg_21"/>
  <circle cx="718.62639" cy="483.13309" r="16.42438" fill="#e6e6e6" id="svg_22"/>
  <polygon points="688.515 509.033 769.374 542.724 766.847 550.726 720.311 545.461 641.558 510.507 685.356 515.561 688.515 509.033" fill="#3f3d56" id="svg_23"/>
  <path d="m759.98963,541.20611l100.56476,-329.88689l24.49016,-43.49091l0.086,-0.4197c0.079,-0.38371 1.877,-9.47416 -2.54574,-16.05732a14.41879,14.41879 0 0 0 -9.7384,-6.13447c-13.51631,-2.53423 -43.75393,-3.78284 -45.0342,-3.83486l-0.24142,-0.00987l-0.23935,0.03269c-0.82624,0.11269 -20.15088,2.93748 -24.51936,19.8122l-21.0244,38.2637l-0.08267,0.27226l-95.17721,312.90543l5.2379,1.59325l95.0945,-312.63319l21.09473,-38.39264l0.08555,-0.35286c3.089,-12.6985 17.85682,-15.66929 19.821,-16.00921c3.089,0.13181 31.50885,1.39646 43.9756,3.73411a9.02851,9.02851 0 0 1 6.19122,3.7888c2.72588,4.03618 2.04358,9.97879 1.8034,11.541l-24.34,43.22463l-0.08719,0.28521l-100.65196,330.1721l5.23708,1.59654z" fill="#3f3d56" id="svg_24"/>
  <rect x="1198.468775" y="1494.255101" width="5.47477" height="73.80538" transform="rotate(-79.76213836669922 233.4631347656252,1119.5472412109377) " fill="#3f3d56" id="svg_25"/>
  <rect x="1109.044962" y="1549.533144" width="5.47474" height="73.59863" transform="rotate(-78.46469116210938 157.9234924316404,1129.1281738281248) " fill="#3f3d56" id="svg_26"/>
  <rect x="922.69978" y="1616.407169" width="5.47463" height="73.22959" transform="rotate(-74.03214263916016 -3.208790063857913,1113.021728515625) " fill="#3f3d56" id="svg_27"/>
  <polygon points="784.589 511.372 786.585 506.273 718.249 479.515 714.893 443.181 778.675 467.004 799.338 496.902 803.843 493.79 782.201 462.476 708.64 435 713.108 483.382 784.589 511.372" fill="#3f3d56" id="svg_28"/>
  <circle cx="808.32876" cy="518.50867" r="37.06013" fill="#3f3d56" id="svg_29"/>
  <circle cx="818.01493" cy="520.19322" r="16.42438" fill="#e6e6e6" id="svg_30"/>
 </g>
</svg>