<?xml version="1.0" encoding="iso-8859-1"?>
<!-- Generator: Adobe Illustrator 19.0.0, SVG Export Plug-In . SVG Version: 6.00 Build 0)  -->
<svg version="1.1" id="Capa_1" xmlns="http://www.w3.org/2000/svg" xmlns:xlink="http://www.w3.org/1999/xlink" x="0px" y="0px"
	 viewBox="0 0 512 512" style="enable-background:new 0 0 512 512;" xml:space="preserve">
<rect x="110.931" y="162.135" style="fill:#E97424;" width="68.266" height="42.666"/>
<path style="fill:#FFC117;" d="M255.996,349.865l-6.699-60.304c-5.905-53.111-50.798-93.285-104.233-93.293l0,0
	c-53.435,0-98.328,40.183-104.233,93.293l-6.699,60.304l-25.6,34.133v119.465h273.062V383.998L255.996,349.865z"/>
<path style="opacity:0.3;fill:#E97424;enable-background:new    ;" d="M255.996,349.865l-6.699-60.304
	c-1.485-13.372-5.547-26.325-11.946-38.152C224.577,356.308,135.533,435.18,29.866,435.197c-7.125,0-14.242-0.358-21.333-1.075
	v69.341h273.062V383.998L255.996,349.865z"/>
<rect x="8.533" y="418.131" style="fill:#51ABD8;" width="273.062" height="85.332"/>
<rect x="230.396" y="418.131" style="fill:#1588C9;" width="51.199" height="85.332"/>
<rect x="42.666" y="452.263" style="fill:#FFC117;" width="51.199" height="51.199"/>
<path style="fill:#E7F4FD;" d="M145.064,238.934L145.064,238.934c33.663-0.009,61.601,26.009,63.999,59.579l4.267,59.886H76.799
	l4.267-59.886C83.463,264.943,111.401,238.934,145.064,238.934z"/>
<path style="fill:#51ABD8;" d="M110.931,358.398c0-18.85,15.283-34.133,34.133-34.133s34.133,15.283,34.133,34.133H110.931z"/>
<path style="fill:#CCCCCC;" d="M392.527,366.931V85.336c0-23.56-19.106-42.666-42.666-42.666H204.797
	c-23.56,0-42.666,19.106-42.666,42.666v76.799h-34.133V93.869c0-47.129,38.203-85.332,85.332-85.332h127.998
	c47.129,0,85.332,38.203,85.332,85.332v273.062H392.527z"/>
<polygon style="fill:#FFC117;" points="477.859,435.197 435.193,435.197 435.193,366.931 383.994,366.931 383.994,435.197 
	341.328,435.197 315.728,503.463 503.458,503.463 "/>
<path style="opacity:0.3;fill:#E97424;enable-background:new    ;" d="M353.897,503.463h149.561l-25.6-68.266h-27.784
	C427.282,468.801,393.133,493.035,353.897,503.463z"/>
<path d="M8.533,511.996h273.062c4.71,0,8.533-3.823,8.533-8.533V383.998c0-1.843-0.597-3.644-1.707-5.12l-24.2-32.273l-6.443-58.026
	c-4.591-41.352-31.479-76.867-70.049-92.491v-33.954c0-4.71-3.823-8.533-8.533-8.533h-8.533V85.336
	c0-18.85,15.283-34.133,34.133-34.133h145.064c18.85,0,34.133,15.283,34.133,34.133v273.062c-4.71,0-8.533,3.823-8.533,8.533v59.732
	h-34.133c-3.558,0-6.75,2.202-7.996,5.538l-25.6,68.266c-1.655,4.412,0.58,9.335,4.992,10.982c0.964,0.367,1.98,0.546,3.004,0.546
	h187.73c4.71,0,8.533-3.814,8.542-8.525c0-1.024-0.179-2.039-0.546-3.004l-25.6-68.266c-1.246-3.328-4.437-5.538-7.996-5.538
	h-34.133v-59.732c0-4.71-3.823-8.533-8.533-8.533V93.869c-0.06-51.814-42.052-93.805-93.865-93.865H213.33
	c-51.814,0.06-93.805,42.052-93.865,93.865v59.732h-8.533c-4.71,0-8.533,3.823-8.533,8.533v33.954
	c-38.579,15.624-65.475,51.156-70.049,92.525l-6.443,58.026l-24.2,32.238C0.597,380.354,0,382.155,0,383.998v119.465
	C0,508.181,3.823,511.996,8.533,511.996z M17.066,426.664h204.797v68.266H102.398v-42.666c0-4.71-3.823-8.533-8.533-8.533H42.666
	c-4.71,0-8.533,3.823-8.533,8.533v42.666H17.066V426.664z M51.199,494.929v-34.133h34.133v34.133H51.199z M238.929,494.929v-68.266
	h34.133v68.266H238.929z M401.06,110.936h17.066v213.33H401.06V110.936z M491.145,494.929H328.041l19.2-51.199h24.917l-4.787,14.37
	l16.213,5.393l8.533-25.6c0.282-0.87,0.418-1.775,0.41-2.696v-59.732h34.133v59.732c0,0.913,0.154,1.826,0.444,2.697l8.533,25.6
	l16.213-5.393l-4.821-14.37h24.917L491.145,494.929z M401.06,358.398v-17.066h17.066v17.066H401.06z M213.33,17.071h127.998
	c42.393,0.051,76.747,34.406,76.799,76.799H401.06v-8.533c-0.026-28.262-22.937-51.174-51.199-51.199H204.797
	c-28.262,0.026-51.174,22.937-51.199,51.199v34.133h-17.066v-25.6C136.582,51.476,170.937,17.122,213.33,17.071z M136.531,136.535
	h17.066v17.066h-17.066V136.535z M119.465,170.668h51.199v20.087c-16.827-4.028-34.372-4.028-51.199,0V170.668z M40.959,354.985
	c0.913-1.22,1.485-2.662,1.655-4.181l6.699-60.304c5.871-52.88,53.503-90.989,106.383-85.119
	c44.791,4.975,80.144,40.328,85.119,85.119l6.699,60.304c0.171,1.519,0.742,2.961,1.655,4.181l23.893,31.854v22.758H17.066v-22.758
	L40.959,354.985z"/>
<path d="M76.799,366.931H213.33c4.71,0.009,8.542-3.797,8.559-8.508c0-0.213-0.009-0.418-0.026-0.631l-4.267-59.886
	c-2.884-40.038-37.683-70.16-77.72-67.276c-36.027,2.594-64.682,31.249-67.276,67.276l-4.335,59.886
	c-0.333,4.702,3.208,8.781,7.902,9.113C76.381,366.931,76.585,366.931,76.799,366.931z M121.035,349.865
	c4.625-13.269,19.131-20.283,32.401-15.658c7.339,2.551,13.098,8.32,15.658,15.658H121.035z M89.599,299.127
	c2.347-30.634,29.081-53.563,59.707-51.225c27.374,2.091,49.126,23.85,51.225,51.225l3.635,50.738h-17.288
	c-4.693-23.091-27.212-38.015-50.303-33.322c-16.793,3.413-29.909,16.537-33.322,33.322H85.963L89.599,299.127z"/>
<rect x="119.465" y="460.797" width="17.066" height="17.066"/>
<rect x="153.597" y="460.797" width="17.066" height="17.066"/>
<rect x="187.73" y="460.797" width="17.066" height="17.066"/>
<g>
</g>
<g>
</g>
<g>
</g>
<g>
</g>
<g>
</g>
<g>
</g>
<g>
</g>
<g>
</g>
<g>
</g>
<g>
</g>
<g>
</g>
<g>
</g>
<g>
</g>
<g>
</g>
<g>
</g>
</svg>
